# xmcd CD database file
#
# Track frame offsets:
#	150
#	21475
#	46505
#	70275
#	92045
#	116217
#	141277
#	163030
#	189040
#
# Disc length: 2709 seconds
#
# Revision: 0
# Processed by: cddbd v1.4PL0 Copyright (c) Steve Scherf et al.
# Submitted via: CDex 1.50beta10
#
DISCID=760a9309
DTITLE=Moe Koffman - 1967
DYEAR=1967
DGENRE=Jazz
TTITLE0=Comin' Home Baby
TTITLE1=Spectacular
TTITLE2=Mercy, Mercy, Mercy
TTITLE3=Watermelon Man
TTITLE4=Norwegian Wood
TTITLE5=Forest Flower
TTITLE6=Milestones
TTITLE7=Swinging Shepherd Blues
TTITLE8=Now's The Time
EXTD=YEAR: 1967
EXTT0=
EXTT1=
EXTT2=
EXTT3=
EXTT4=
EXTT5=
EXTT6=
EXTT7=
EXTT8=
PLAYORDER=
